<svg xmlns="http://www.w3.org/2000/svg" viewBox="0 0 256 256" width="256" height="256">
  <defs>
    <linearGradient id="grad" x1="0%" y1="0%" x2="100%" y2="100%">
      <stop offset="0%" stop-color="#6366f1" />
      <stop offset="100%" stop-color="#7c3aed" />
    </linearGradient>
  </defs>
  <rect width="256" height="256" rx="64" fill="url(#grad)" />
  <svg x="48" y="48" width="160" height="160" viewBox="0 0 24 24" fill="none" stroke="white" stroke-width="2" stroke-linecap="round" stroke-linejoin="round">
    <path d="M21.42 10.922a2 2 0 0 1-.019 3.838L12.83 19.818a2 2 0 0 1-1.66 0L2.6 14.76a2 2 0 0 1-.019-3.838l8.571-4.604a2 2 0 0 1 1.694 0l8.574 4.604z"/>
    <path d="M22 10v6"/>
    <path d="M6 12.5V16a6 3 0 0 0 12 0v-3.5"/>
  </svg>
</svg>
